<?xml version="1.0" encoding="UTF-8" standalone="no"?>
<!DOCTYPE svg PUBLIC "-//W3C//DTD SVG 1.1//EN"
 "http://www.w3.org/Graphics/SVG/1.1/DTD/svg11.dtd">
<!-- Generated by graphviz version 2.50.0 (0)
 -->
<!-- Title: G Pages: 1 -->
<svg width="526pt" height="435pt"
 viewBox="0.00 0.00 526.18 435.00" xmlns="http://www.w3.org/2000/svg" xmlns:xlink="http://www.w3.org/1999/xlink">
<g id="graph0" class="graph" transform="scale(1 1) rotate(0) translate(4 431)">
<title>G</title>
<polygon fill="white" stroke="transparent" points="-4,4 -4,-431 522.18,-431 522.18,4 -4,4"/>
<!-- 1 -->
<g id="node1" class="node">
<title>1</title>
<ellipse fill="none" stroke="black" cx="27" cy="-72" rx="27" ry="18"/>
<text text-anchor="middle" x="27" y="-68.3" font-family="Times,serif" font-size="14.00">1</text>
</g>
<!-- ŵ₀ + xₙ*ŵ₁, &#160;&#160;&#160;bias=False -->
<g id="node2" class="node">
<title>ŵ₀ + xₙ*ŵ₁, &#160;&#160;&#160;bias=False</title>
<ellipse fill="none" stroke="black" cx="245.09" cy="-58" rx="126.18" ry="18"/>
<text text-anchor="middle" x="245.09" y="-54.3" font-family="Times,serif" font-size="14.00">ŵ₀ + xₙ*ŵ₁, &#160;&#160;&#160;bias=False</text>
</g>
<!-- 1&#45;&gt;ŵ₀ + xₙ*ŵ₁, &#160;&#160;&#160;bias=False -->
<g id="edge1" class="edge">
<title>1&#45;&gt;ŵ₀ + xₙ*ŵ₁, &#160;&#160;&#160;bias=False</title>
<path fill="none" stroke="black" d="M54.07,-70.31C71.21,-69.2 95.03,-67.66 120.03,-66.04"/>
<polygon fill="black" stroke="black" points="120.28,-69.53 130.03,-65.39 119.82,-62.54 120.28,-69.53"/>
<text text-anchor="middle" x="86.5" y="-72.8" font-family="Times,serif" font-size="14.00">* ŵ₀</text>
</g>
<!-- ŷₙ -->
<g id="node4" class="node">
<title>ŷₙ</title>
<ellipse fill="none" stroke="black" cx="491.18" cy="-58" rx="27" ry="18"/>
<text text-anchor="middle" x="491.18" y="-54.3" font-family="Times,serif" font-size="14.00">ŷₙ</text>
</g>
<!-- ŵ₀ + xₙ*ŵ₁, &#160;&#160;&#160;bias=False&#45;&gt;ŷₙ -->
<g id="edge3" class="edge">
<title>ŵ₀ + xₙ*ŵ₁, &#160;&#160;&#160;bias=False&#45;&gt;ŷₙ</title>
<path fill="none" stroke="black" d="M371.35,-58C401.53,-58 431.44,-58 453.71,-58"/>
<polygon fill="black" stroke="black" points="453.99,-61.5 463.99,-58 453.99,-54.5 453.99,-61.5"/>
<text text-anchor="middle" x="417.68" y="-61.8" font-family="Times,serif" font-size="14.00">sigmoid</text>
</g>
<!-- xₙ -->
<g id="node3" class="node">
<title>xₙ</title>
<ellipse fill="none" stroke="black" cx="27" cy="-18" rx="27" ry="18"/>
<text text-anchor="middle" x="27" y="-14.3" font-family="Times,serif" font-size="14.00">xₙ</text>
</g>
<!-- xₙ&#45;&gt;ŵ₀ + xₙ*ŵ₁, &#160;&#160;&#160;bias=False -->
<g id="edge2" class="edge">
<title>xₙ&#45;&gt;ŵ₀ + xₙ*ŵ₁, &#160;&#160;&#160;bias=False</title>
<path fill="none" stroke="black" d="M53.21,-22.67C78.76,-27.4 119.76,-34.98 157.22,-41.92"/>
<polygon fill="black" stroke="black" points="156.69,-45.38 167.16,-43.76 157.96,-38.5 156.69,-45.38"/>
<text text-anchor="middle" x="86.5" y="-34.8" font-family="Times,serif" font-size="14.00">* ŵ₁</text>
</g>
<!-- . -->
<g id="node5" class="node">
<title>.</title>
<ellipse fill="none" stroke="black" cx="27" cy="-193" rx="27" ry="18"/>
<text text-anchor="middle" x="27" y="-189.3" font-family="Times,serif" font-size="14.00">.</text>
</g>
<!-- .................................... -->
<g id="node6" class="node">
<title>....................................</title>
<ellipse fill="none" stroke="black" cx="245.09" cy="-139" rx="116.18" ry="18"/>
<text text-anchor="middle" x="245.09" y="-135.3" font-family="Times,serif" font-size="14.00">....................................</text>
</g>
<!-- .&#45;&gt;.................................... -->
<g id="edge4" class="edge">
<title>.&#45;&gt;....................................</title>
<path fill="none" stroke="black" d="M52.79,-186.81C81.94,-179.52 131.59,-167.11 173.01,-156.76"/>
<polygon fill="black" stroke="black" points="173.95,-160.14 182.8,-154.32 172.25,-153.35 173.95,-160.14"/>
<text text-anchor="middle" x="86.5" y="-184.8" font-family="Times,serif" font-size="14.00">* ŵ₀</text>
</g>
<!-- ... -->
<g id="node8" class="node">
<title>...</title>
<ellipse fill="none" stroke="black" cx="491.18" cy="-139" rx="27" ry="18"/>
<text text-anchor="middle" x="491.18" y="-135.3" font-family="Times,serif" font-size="14.00">...</text>
</g>
<!-- ....................................&#45;&gt;... -->
<g id="edge6" class="edge">
<title>....................................&#45;&gt;...</title>
<path fill="none" stroke="black" d="M361.7,-139C394.97,-139 428.89,-139 453.51,-139"/>
<polygon fill="black" stroke="black" points="453.8,-142.5 463.8,-139 453.8,-135.5 453.8,-142.5"/>
<text text-anchor="middle" x="417.68" y="-142.8" font-family="Times,serif" font-size="14.00"> </text>
</g>
<!-- .. -->
<g id="node7" class="node">
<title>..</title>
<ellipse fill="none" stroke="black" cx="27" cy="-139" rx="27" ry="18"/>
<text text-anchor="middle" x="27" y="-135.3" font-family="Times,serif" font-size="14.00">..</text>
</g>
<!-- ..&#45;&gt;.................................... -->
<g id="edge5" class="edge">
<title>..&#45;&gt;....................................</title>
<path fill="none" stroke="black" d="M54.07,-139C70.84,-139 94,-139 118.4,-139"/>
<polygon fill="black" stroke="black" points="118.54,-142.5 128.54,-139 118.54,-135.5 118.54,-142.5"/>
<text text-anchor="middle" x="86.5" y="-142.8" font-family="Times,serif" font-size="14.00">* ŵ₁</text>
</g>
<!-- 1  -->
<g id="node9" class="node">
<title>1 </title>
<ellipse fill="none" stroke="black" cx="27" cy="-301" rx="27" ry="18"/>
<text text-anchor="middle" x="27" y="-297.3" font-family="Times,serif" font-size="14.00">1 </text>
</g>
<!-- ŵ₀ + x₂*ŵ₁, &#160;&#160;&#160;bias=False -->
<g id="node10" class="node">
<title>ŵ₀ + x₂*ŵ₁, &#160;&#160;&#160;bias=False</title>
<ellipse fill="none" stroke="black" cx="245.09" cy="-274" rx="126.18" ry="18"/>
<text text-anchor="middle" x="245.09" y="-270.3" font-family="Times,serif" font-size="14.00">ŵ₀ + x₂*ŵ₁, &#160;&#160;&#160;bias=False</text>
</g>
<!-- 1 &#45;&gt;ŵ₀ + x₂*ŵ₁, &#160;&#160;&#160;bias=False -->
<g id="edge7" class="edge">
<title>1 &#45;&gt;ŵ₀ + x₂*ŵ₁, &#160;&#160;&#160;bias=False</title>
<path fill="none" stroke="black" d="M53.64,-297.8C75.12,-295.11 107.32,-291.09 139.15,-287.11"/>
<polygon fill="black" stroke="black" points="139.97,-290.54 149.46,-285.82 139.1,-283.59 139.97,-290.54"/>
<text text-anchor="middle" x="86.5" y="-298.8" font-family="Times,serif" font-size="14.00">* ŵ₀</text>
</g>
<!-- ŷ₂ -->
<g id="node12" class="node">
<title>ŷ₂</title>
<ellipse fill="none" stroke="black" cx="491.18" cy="-274" rx="27" ry="18"/>
<text text-anchor="middle" x="491.18" y="-270.3" font-family="Times,serif" font-size="14.00">ŷ₂</text>
</g>
<!-- ŵ₀ + x₂*ŵ₁, &#160;&#160;&#160;bias=False&#45;&gt;ŷ₂ -->
<g id="edge9" class="edge">
<title>ŵ₀ + x₂*ŵ₁, &#160;&#160;&#160;bias=False&#45;&gt;ŷ₂</title>
<path fill="none" stroke="black" d="M371.35,-274C401.53,-274 431.44,-274 453.71,-274"/>
<polygon fill="black" stroke="black" points="453.99,-277.5 463.99,-274 453.99,-270.5 453.99,-277.5"/>
<text text-anchor="middle" x="417.68" y="-277.8" font-family="Times,serif" font-size="14.00">sigmoid</text>
</g>
<!-- x₂ -->
<g id="node11" class="node">
<title>x₂</title>
<ellipse fill="none" stroke="black" cx="27" cy="-247" rx="27" ry="18"/>
<text text-anchor="middle" x="27" y="-243.3" font-family="Times,serif" font-size="14.00">x₂</text>
</g>
<!-- x₂&#45;&gt;ŵ₀ + x₂*ŵ₁, &#160;&#160;&#160;bias=False -->
<g id="edge8" class="edge">
<title>x₂&#45;&gt;ŵ₀ + x₂*ŵ₁, &#160;&#160;&#160;bias=False</title>
<path fill="none" stroke="black" d="M53.64,-250.2C75.12,-252.89 107.32,-256.91 139.15,-260.89"/>
<polygon fill="black" stroke="black" points="139.1,-264.41 149.46,-262.18 139.97,-257.46 139.1,-264.41"/>
<text text-anchor="middle" x="86.5" y="-258.8" font-family="Times,serif" font-size="14.00">* ŵ₁</text>
</g>
<!-- 1 &#160; -->
<g id="node13" class="node">
<title>1 &#160;</title>
<ellipse fill="none" stroke="black" cx="27" cy="-409" rx="27" ry="18"/>
<text text-anchor="middle" x="27" y="-405.3" font-family="Times,serif" font-size="14.00">1 &#160;</text>
</g>
<!-- ŵ₀ + x₁*ŵ₁, &#160;&#160;&#160;bias=False -->
<g id="node14" class="node">
<title>ŵ₀ + x₁*ŵ₁, &#160;&#160;&#160;bias=False</title>
<ellipse fill="none" stroke="black" cx="245.09" cy="-382" rx="126.18" ry="18"/>
<text text-anchor="middle" x="245.09" y="-378.3" font-family="Times,serif" font-size="14.00">ŵ₀ + x₁*ŵ₁, &#160;&#160;&#160;bias=False</text>
</g>
<!-- 1 &#160;&#45;&gt;ŵ₀ + x₁*ŵ₁, &#160;&#160;&#160;bias=False -->
<g id="edge10" class="edge">
<title>1 &#160;&#45;&gt;ŵ₀ + x₁*ŵ₁, &#160;&#160;&#160;bias=False</title>
<path fill="none" stroke="black" d="M53.64,-405.8C75.12,-403.11 107.32,-399.09 139.15,-395.11"/>
<polygon fill="black" stroke="black" points="139.97,-398.54 149.46,-393.82 139.1,-391.59 139.97,-398.54"/>
<text text-anchor="middle" x="86.5" y="-406.8" font-family="Times,serif" font-size="14.00">* ŵ₀</text>
</g>
<!-- ŷ₁ -->
<g id="node16" class="node">
<title>ŷ₁</title>
<ellipse fill="none" stroke="black" cx="491.18" cy="-382" rx="27" ry="18"/>
<text text-anchor="middle" x="491.18" y="-378.3" font-family="Times,serif" font-size="14.00">ŷ₁</text>
</g>
<!-- ŵ₀ + x₁*ŵ₁, &#160;&#160;&#160;bias=False&#45;&gt;ŷ₁ -->
<g id="edge12" class="edge">
<title>ŵ₀ + x₁*ŵ₁, &#160;&#160;&#160;bias=False&#45;&gt;ŷ₁</title>
<path fill="none" stroke="black" d="M371.35,-382C401.53,-382 431.44,-382 453.71,-382"/>
<polygon fill="black" stroke="black" points="453.99,-385.5 463.99,-382 453.99,-378.5 453.99,-385.5"/>
<text text-anchor="middle" x="417.68" y="-385.8" font-family="Times,serif" font-size="14.00">sigmoid</text>
</g>
<!-- x₁ -->
<g id="node15" class="node">
<title>x₁</title>
<ellipse fill="none" stroke="black" cx="27" cy="-355" rx="27" ry="18"/>
<text text-anchor="middle" x="27" y="-351.3" font-family="Times,serif" font-size="14.00">x₁</text>
</g>
<!-- x₁&#45;&gt;ŵ₀ + x₁*ŵ₁, &#160;&#160;&#160;bias=False -->
<g id="edge11" class="edge">
<title>x₁&#45;&gt;ŵ₀ + x₁*ŵ₁, &#160;&#160;&#160;bias=False</title>
<path fill="none" stroke="black" d="M53.64,-358.2C75.12,-360.89 107.32,-364.91 139.15,-368.89"/>
<polygon fill="black" stroke="black" points="139.1,-372.41 149.46,-370.18 139.97,-365.46 139.1,-372.41"/>
<text text-anchor="middle" x="86.5" y="-366.8" font-family="Times,serif" font-size="14.00">* ŵ₁</text>
</g>
</g>
</svg>
