<?xml version="1.0" encoding="UTF-8" standalone="no"?>
<!DOCTYPE svg PUBLIC "-//W3C//DTD SVG 1.1//EN"
 "http://www.w3.org/Graphics/SVG/1.1/DTD/svg11.dtd">
<!-- Generated by graphviz version 2.50.0 (0)
 -->
<!-- Title: G Pages: 1 -->
<svg width="522pt" height="98pt"
 viewBox="0.00 0.00 522.28 98.00" xmlns="http://www.w3.org/2000/svg" xmlns:xlink="http://www.w3.org/1999/xlink">
<g id="graph0" class="graph" transform="scale(1 1) rotate(0) translate(4 94)">
<title>G</title>
<polygon fill="white" stroke="transparent" points="-4,4 -4,-94 518.28,-94 518.28,4 -4,4"/>
<!-- 1 -->
<g id="node1" class="node">
<title>1</title>
<ellipse fill="none" stroke="black" cx="27" cy="-72" rx="27" ry="18"/>
<text text-anchor="middle" x="27" y="-68.3" font-family="Times,serif" font-size="14.00">1</text>
</g>
<!-- ŵ₀ + xᵢ*ŵ₁, &#160;&#160;&#160;bias=False -->
<g id="node2" class="node">
<title>ŵ₀ + xᵢ*ŵ₁, &#160;&#160;&#160;bias=False</title>
<ellipse fill="none" stroke="black" cx="243.14" cy="-45" rx="124.28" ry="18"/>
<text text-anchor="middle" x="243.14" y="-41.3" font-family="Times,serif" font-size="14.00">ŵ₀ + xᵢ*ŵ₁, &#160;&#160;&#160;bias=False</text>
</g>
<!-- 1&#45;&gt;ŵ₀ + xᵢ*ŵ₁, &#160;&#160;&#160;bias=False -->
<g id="edge1" class="edge">
<title>1&#45;&gt;ŵ₀ + xᵢ*ŵ₁, &#160;&#160;&#160;bias=False</title>
<path fill="none" stroke="black" d="M53.83,-68.74C75.21,-66.05 107.07,-62.03 138.54,-58.06"/>
<polygon fill="black" stroke="black" points="139.24,-61.5 148.73,-56.78 138.37,-54.56 139.24,-61.5"/>
<text text-anchor="middle" x="86.5" y="-69.8" font-family="Times,serif" font-size="14.00">* ŵ₀</text>
</g>
<!-- ŷᵢ -->
<g id="node4" class="node">
<title>ŷᵢ</title>
<ellipse fill="none" stroke="black" cx="487.28" cy="-45" rx="27" ry="18"/>
<text text-anchor="middle" x="487.28" y="-41.3" font-family="Times,serif" font-size="14.00">ŷᵢ</text>
</g>
<!-- ŵ₀ + xᵢ*ŵ₁, &#160;&#160;&#160;bias=False&#45;&gt;ŷᵢ -->
<g id="edge3" class="edge">
<title>ŵ₀ + xᵢ*ŵ₁, &#160;&#160;&#160;bias=False&#45;&gt;ŷᵢ</title>
<path fill="none" stroke="black" d="M367.34,-45C397.59,-45 427.67,-45 450.01,-45"/>
<polygon fill="black" stroke="black" points="450.02,-48.5 460.02,-45 450.02,-41.5 450.02,-48.5"/>
<text text-anchor="middle" x="413.78" y="-48.8" font-family="Times,serif" font-size="14.00">sigmoid</text>
</g>
<!-- xᵢ -->
<g id="node3" class="node">
<title>xᵢ</title>
<ellipse fill="none" stroke="black" cx="27" cy="-18" rx="27" ry="18"/>
<text text-anchor="middle" x="27" y="-14.3" font-family="Times,serif" font-size="14.00">xᵢ</text>
</g>
<!-- xᵢ&#45;&gt;ŵ₀ + xᵢ*ŵ₁, &#160;&#160;&#160;bias=False -->
<g id="edge2" class="edge">
<title>xᵢ&#45;&gt;ŵ₀ + xᵢ*ŵ₁, &#160;&#160;&#160;bias=False</title>
<path fill="none" stroke="black" d="M53.83,-21.26C75.21,-23.95 107.07,-27.97 138.54,-31.94"/>
<polygon fill="black" stroke="black" points="138.37,-35.44 148.73,-33.22 139.24,-28.5 138.37,-35.44"/>
<text text-anchor="middle" x="86.5" y="-29.8" font-family="Times,serif" font-size="14.00">* ŵ₁</text>
</g>
</g>
</svg>
