<?xml version="1.0" encoding="UTF-8" standalone="no"?>
<!DOCTYPE svg PUBLIC "-//W3C//DTD SVG 1.1//EN"
 "http://www.w3.org/Graphics/SVG/1.1/DTD/svg11.dtd">
<!-- Generated by graphviz version 2.50.0 (0)
 -->
<!-- Title: G Pages: 1 -->
<svg width="374pt" height="153pt"
 viewBox="0.00 0.00 373.99 153.00" xmlns="http://www.w3.org/2000/svg" xmlns:xlink="http://www.w3.org/1999/xlink">
<g id="graph0" class="graph" transform="scale(1 1) rotate(0) translate(4 149)">
<title>G</title>
<polygon fill="white" stroke="transparent" points="-4,4 -4,-149 369.99,-149 369.99,4 -4,4"/>
<g id="clust1" class="cluster">
<title>cluster_1</title>
<polygon fill="lightgrey" stroke="lightgrey" points="8,-35 8,-110 79,-110 79,-35 8,-35"/>
<text text-anchor="middle" x="43.5" y="-94.8" font-family="Times,serif" font-size="14.00">Layer 0</text>
</g>
<g id="clust2" class="cluster">
<title>cluster_2</title>
<polygon fill="lightgrey" stroke="lightgrey" points="99,-8 99,-137 215.09,-137 215.09,-8 99,-8"/>
<text text-anchor="middle" x="157.05" y="-121.8" font-family="Times,serif" font-size="14.00">Layer 1:relu</text>
</g>
<g id="clust3" class="cluster">
<title>cluster_3</title>
<polygon fill="lightgrey" stroke="lightgrey" points="235.09,-35 235.09,-110 365.99,-110 365.99,-35 235.09,-35"/>
<text text-anchor="middle" x="300.54" y="-94.8" font-family="Times,serif" font-size="14.00">Layer 2:sigmoid</text>
</g>
<!-- X -->
<g id="node1" class="node">
<title>X</title>
<ellipse fill="none" stroke="black" cx="43" cy="-61" rx="27" ry="18"/>
<text text-anchor="middle" x="43" y="-57.3" font-family="Times,serif" font-size="14.00">X</text>
</g>
<!-- feature1 -->
<g id="node2" class="node">
<title>feature1</title>
<ellipse fill="none" stroke="black" cx="157.05" cy="-88" rx="50.09" ry="18"/>
<text text-anchor="middle" x="157.05" y="-84.3" font-family="Times,serif" font-size="14.00">feature1</text>
</g>
<!-- X&#45;&gt;feature1 -->
<g id="edge1" class="edge">
<title>X&#45;&gt;feature1</title>
<path fill="none" stroke="black" d="M68.59,-66.93C79.26,-69.5 92.19,-72.61 104.79,-75.65"/>
<polygon fill="black" stroke="black" points="104.24,-79.12 114.78,-78.06 105.88,-72.31 104.24,-79.12"/>
</g>
<!-- feature2 -->
<g id="node3" class="node">
<title>feature2</title>
<ellipse fill="none" stroke="black" cx="157.05" cy="-34" rx="50.09" ry="18"/>
<text text-anchor="middle" x="157.05" y="-30.3" font-family="Times,serif" font-size="14.00">feature2</text>
</g>
<!-- X&#45;&gt;feature2 -->
<g id="edge2" class="edge">
<title>X&#45;&gt;feature2</title>
<path fill="none" stroke="black" d="M68.59,-55.07C79.26,-52.5 92.19,-49.39 104.79,-46.35"/>
<polygon fill="black" stroke="black" points="105.88,-49.69 114.78,-43.94 104.24,-42.88 105.88,-49.69"/>
</g>
<!-- yhat  -->
<g id="node4" class="node">
<title>yhat </title>
<ellipse fill="none" stroke="black" cx="300.54" cy="-61" rx="34.39" ry="18"/>
<text text-anchor="middle" x="300.54" y="-57.3" font-family="Times,serif" font-size="14.00">yhat </text>
</g>
<!-- feature1&#45;&gt;yhat  -->
<g id="edge3" class="edge">
<title>feature1&#45;&gt;yhat </title>
<path fill="none" stroke="black" d="M201.65,-79.68C219.57,-76.26 240.23,-72.32 257.94,-68.94"/>
<polygon fill="black" stroke="black" points="258.81,-72.34 267.98,-67.02 257.5,-65.46 258.81,-72.34"/>
</g>
<!-- feature2&#45;&gt;yhat  -->
<g id="edge4" class="edge">
<title>feature2&#45;&gt;yhat </title>
<path fill="none" stroke="black" d="M201.65,-42.32C219.57,-45.74 240.23,-49.68 257.94,-53.06"/>
<polygon fill="black" stroke="black" points="257.5,-56.54 267.98,-54.98 258.81,-49.66 257.5,-56.54"/>
</g>
</g>
</svg>
