<?xml version="1.0" encoding="UTF-8" standalone="no"?>
<!DOCTYPE svg PUBLIC "-//W3C//DTD SVG 1.1//EN"
 "http://www.w3.org/Graphics/SVG/1.1/DTD/svg11.dtd">
<!-- Generated by graphviz version 2.50.0 (0)
 -->
<!-- Title: G Pages: 1 -->
<svg width="650pt" height="98pt"
 viewBox="0.00 0.00 650.28 98.00" xmlns="http://www.w3.org/2000/svg" xmlns:xlink="http://www.w3.org/1999/xlink">
<g id="graph0" class="graph" transform="scale(1 1) rotate(0) translate(4 94)">
<title>G</title>
<polygon fill="white" stroke="transparent" points="-4,4 -4,-94 646.28,-94 646.28,4 -4,4"/>
<!-- x -->
<g id="node1" class="node">
<title>x</title>
<ellipse fill="none" stroke="black" cx="27" cy="-45" rx="27" ry="18"/>
<text text-anchor="middle" x="27" y="-41.3" font-family="Times,serif" font-size="14.00">x</text>
</g>
<!--  &#45;x -->
<g id="node2" class="node">
<title> &#45;x</title>
<ellipse fill="none" stroke="black" cx="148" cy="-72" rx="27" ry="18"/>
<text text-anchor="middle" x="148" y="-68.3" font-family="Times,serif" font-size="14.00"> &#45;x</text>
</g>
<!-- x&#45;&gt; &#45;x -->
<g id="edge1" class="edge">
<title>x&#45;&gt; &#45;x</title>
<path fill="none" stroke="black" d="M52.95,-50.66C70.16,-54.57 93.28,-59.81 112.29,-64.13"/>
<polygon fill="black" stroke="black" points="111.56,-67.55 122.09,-66.35 113.11,-60.72 111.56,-67.55"/>
<text text-anchor="middle" x="87.5" y="-64.8" font-family="Times,serif" font-size="14.00">*(&#45;1)</text>
</g>
<!--  x -->
<g id="node3" class="node">
<title> x</title>
<ellipse fill="none" stroke="black" cx="148" cy="-18" rx="27" ry="18"/>
<text text-anchor="middle" x="148" y="-14.3" font-family="Times,serif" font-size="14.00"> x</text>
</g>
<!-- x&#45;&gt; x -->
<g id="edge2" class="edge">
<title>x&#45;&gt; x</title>
<path fill="none" stroke="black" d="M52.95,-39.34C70.16,-35.43 93.28,-30.19 112.29,-25.87"/>
<polygon fill="black" stroke="black" points="113.11,-29.28 122.09,-23.65 111.56,-22.45 113.11,-29.28"/>
<text text-anchor="middle" x="87.5" y="-37.8" font-family="Times,serif" font-size="14.00">*1</text>
</g>
<!-- rlu(&#45;x) -->
<g id="node5" class="node">
<title>rlu(&#45;x)</title>
<ellipse fill="none" stroke="black" cx="279" cy="-72" rx="38.99" ry="18"/>
<text text-anchor="middle" x="279" y="-68.3" font-family="Times,serif" font-size="14.00">rlu(&#45;x)</text>
</g>
<!--  &#45;x&#45;&gt;rlu(&#45;x) -->
<g id="edge4" class="edge">
<title> &#45;x&#45;&gt;rlu(&#45;x)</title>
<path fill="none" stroke="black" d="M175.1,-72C190.76,-72 211.15,-72 229.66,-72"/>
<polygon fill="black" stroke="black" points="229.7,-75.5 239.7,-72 229.7,-68.5 229.7,-75.5"/>
<text text-anchor="middle" x="207.5" y="-75.8" font-family="Times,serif" font-size="14.00">relu</text>
</g>
<!-- rlu(x) -->
<g id="node4" class="node">
<title>rlu(x)</title>
<ellipse fill="none" stroke="black" cx="279" cy="-18" rx="36.29" ry="18"/>
<text text-anchor="middle" x="279" y="-14.3" font-family="Times,serif" font-size="14.00">rlu(x)</text>
</g>
<!--  x&#45;&gt;rlu(x) -->
<g id="edge3" class="edge">
<title> x&#45;&gt;rlu(x)</title>
<path fill="none" stroke="black" d="M175.1,-18C191.45,-18 212.98,-18 232.11,-18"/>
<polygon fill="black" stroke="black" points="232.15,-21.5 242.15,-18 232.15,-14.5 232.15,-21.5"/>
<text text-anchor="middle" x="207.5" y="-21.8" font-family="Times,serif" font-size="14.00">relu</text>
</g>
<!-- u -->
<g id="node6" class="node">
<title>u</title>
<ellipse fill="none" stroke="black" cx="425.99" cy="-45" rx="27" ry="18"/>
<text text-anchor="middle" x="425.99" y="-41.3" font-family="Times,serif" font-size="14.00">u</text>
</g>
<!-- rlu(x)&#45;&gt;u -->
<g id="edge5" class="edge">
<title>rlu(x)&#45;&gt;u</title>
<path fill="none" stroke="black" d="M315.32,-20.97C334.83,-23.01 359.42,-26.22 380.99,-31 384.65,-31.81 388.44,-32.79 392.19,-33.85"/>
<polygon fill="black" stroke="black" points="391.33,-37.25 401.91,-36.8 393.36,-30.55 391.33,-37.25"/>
<text text-anchor="middle" x="358.49" y="-34.8" font-family="Times,serif" font-size="14.00">*(&#45;4.5)</text>
</g>
<!-- rlu(&#45;x)&#45;&gt;u -->
<g id="edge6" class="edge">
<title>rlu(&#45;x)&#45;&gt;u</title>
<path fill="none" stroke="black" d="M315.47,-65.4C338.15,-61.17 367.45,-55.72 390.03,-51.51"/>
<polygon fill="black" stroke="black" points="390.7,-54.95 399.89,-49.68 389.41,-48.06 390.7,-54.95"/>
<text text-anchor="middle" x="358.49" y="-63.8" font-family="Times,serif" font-size="14.00">*(&#45;9.0)</text>
</g>
<!-- sig(u)=yhat -->
<g id="node7" class="node">
<title>sig(u)=yhat</title>
<ellipse fill="none" stroke="black" cx="576.64" cy="-45" rx="65.79" ry="18"/>
<text text-anchor="middle" x="576.64" y="-41.3" font-family="Times,serif" font-size="14.00">sig(u)=yhat</text>
</g>
<!-- u&#45;&gt;sig(u)=yhat -->
<g id="edge7" class="edge">
<title>u&#45;&gt;sig(u)=yhat</title>
<path fill="none" stroke="black" d="M453.23,-45C466.6,-45 483.62,-45 500.69,-45"/>
<polygon fill="black" stroke="black" points="500.71,-48.5 510.71,-45 500.71,-41.5 500.71,-48.5"/>
<text text-anchor="middle" x="481.99" y="-48.8" font-family="Times,serif" font-size="14.00">sig</text>
</g>
</g>
</svg>
