<?xml version="1.0" encoding="UTF-8" standalone="no"?>
<!DOCTYPE svg PUBLIC "-//W3C//DTD SVG 1.1//EN"
 "http://www.w3.org/Graphics/SVG/1.1/DTD/svg11.dtd">
<!-- Generated by graphviz version 2.50.0 (0)
 -->
<!-- Title: G Pages: 1 -->
<svg width="479pt" height="261pt"
 viewBox="0.00 0.00 478.68 261.00" xmlns="http://www.w3.org/2000/svg" xmlns:xlink="http://www.w3.org/1999/xlink">
<g id="graph0" class="graph" transform="scale(1 1) rotate(0) translate(4 257)">
<title>G</title>
<polygon fill="white" stroke="transparent" points="-4,4 -4,-257 474.68,-257 474.68,4 -4,4"/>
<g id="clust1" class="cluster">
<title>cluster_1</title>
<polygon fill="lightgrey" stroke="lightgrey" points="0,-8 0,-245 99.59,-245 99.59,-8 0,-8"/>
<text text-anchor="middle" x="49.8" y="-229.8" font-family="Times,serif" font-size="14.00">Input Layer</text>
</g>
<g id="clust2" class="cluster">
<title>cluster_2</title>
<polygon fill="lightgrey" stroke="lightgrey" points="119.59,-8 119.59,-245 270.29,-245 270.29,-8 119.59,-8"/>
<text text-anchor="middle" x="194.94" y="-229.8" font-family="Times,serif" font-size="14.00">Hidden Layer: relu</text>
</g>
<g id="clust3" class="cluster">
<title>cluster_3</title>
<polygon fill="lightgrey" stroke="lightgrey" points="289.29,-89 289.29,-164 470.68,-164 470.68,-89 289.29,-89"/>
<text text-anchor="middle" x="379.98" y="-148.8" font-family="Times,serif" font-size="14.00">Outplut Layer: sigmoid</text>
</g>
<!-- x1 -->
<g id="node1" class="node">
<title>x1</title>
<ellipse fill="none" stroke="black" cx="49.8" cy="-196" rx="27" ry="18"/>
<text text-anchor="middle" x="49.8" y="-192.3" font-family="Times,serif" font-size="14.00">x1</text>
</g>
<!-- node1 -->
<g id="node5" class="node">
<title>node1</title>
<ellipse fill="none" stroke="black" cx="194.44" cy="-196" rx="38.99" ry="18"/>
<text text-anchor="middle" x="194.44" y="-192.3" font-family="Times,serif" font-size="14.00">node1</text>
</g>
<!-- x1&#45;&gt;node1 -->
<g id="edge1" class="edge">
<title>x1&#45;&gt;node1</title>
<path fill="none" stroke="black" d="M76.96,-196C96,-196 122.34,-196 145.15,-196"/>
<polygon fill="black" stroke="black" points="145.35,-199.5 155.35,-196 145.35,-192.5 145.35,-199.5"/>
</g>
<!-- node2 -->
<g id="node6" class="node">
<title>node2</title>
<ellipse fill="none" stroke="black" cx="194.44" cy="-142" rx="38.99" ry="18"/>
<text text-anchor="middle" x="194.44" y="-138.3" font-family="Times,serif" font-size="14.00">node2</text>
</g>
<!-- x1&#45;&gt;node2 -->
<g id="edge5" class="edge">
<title>x1&#45;&gt;node2</title>
<path fill="none" stroke="black" d="M73.72,-187.32C95.36,-179.13 128.28,-166.67 154.12,-156.89"/>
<polygon fill="black" stroke="black" points="155.52,-160.1 163.64,-153.28 153.05,-153.55 155.52,-160.1"/>
</g>
<!-- ... -->
<g id="node7" class="node">
<title>...</title>
<ellipse fill="none" stroke="black" cx="194.44" cy="-88" rx="27" ry="18"/>
<text text-anchor="middle" x="194.44" y="-84.3" font-family="Times,serif" font-size="14.00">...</text>
</g>
<!-- x1&#45;&gt;... -->
<g id="edge9" class="edge">
<title>x1&#45;&gt;...</title>
<path fill="none" stroke="black" d="M68.29,-182.76C93.21,-163.89 139.08,-129.16 167.83,-107.39"/>
<polygon fill="black" stroke="black" points="169.95,-110.18 175.81,-101.35 165.72,-104.6 169.95,-110.18"/>
</g>
<!-- node32 -->
<g id="node8" class="node">
<title>node32</title>
<ellipse fill="none" stroke="black" cx="194.44" cy="-34" rx="44.69" ry="18"/>
<text text-anchor="middle" x="194.44" y="-30.3" font-family="Times,serif" font-size="14.00">node32</text>
</g>
<!-- x1&#45;&gt;node32 -->
<g id="edge13" class="edge">
<title>x1&#45;&gt;node32</title>
<path fill="none" stroke="black" d="M64.22,-180.76C88.87,-152.76 141.59,-92.89 171.51,-58.9"/>
<polygon fill="black" stroke="black" points="174.26,-61.08 178.24,-51.26 169.01,-56.45 174.26,-61.08"/>
</g>
<!-- x2 -->
<g id="node2" class="node">
<title>x2</title>
<ellipse fill="none" stroke="black" cx="49.8" cy="-142" rx="27" ry="18"/>
<text text-anchor="middle" x="49.8" y="-138.3" font-family="Times,serif" font-size="14.00">x2</text>
</g>
<!-- x2&#45;&gt;node1 -->
<g id="edge2" class="edge">
<title>x2&#45;&gt;node1</title>
<path fill="none" stroke="black" d="M73.72,-150.68C95.36,-158.87 128.28,-171.33 154.12,-181.11"/>
<polygon fill="black" stroke="black" points="153.05,-184.45 163.64,-184.72 155.52,-177.9 153.05,-184.45"/>
</g>
<!-- x2&#45;&gt;node2 -->
<g id="edge6" class="edge">
<title>x2&#45;&gt;node2</title>
<path fill="none" stroke="black" d="M76.96,-142C96,-142 122.34,-142 145.15,-142"/>
<polygon fill="black" stroke="black" points="145.35,-145.5 155.35,-142 145.35,-138.5 145.35,-145.5"/>
</g>
<!-- x2&#45;&gt;... -->
<g id="edge10" class="edge">
<title>x2&#45;&gt;...</title>
<path fill="none" stroke="black" d="M73.72,-133.32C97.32,-124.39 134.31,-110.38 160.93,-100.31"/>
<polygon fill="black" stroke="black" points="162.47,-103.47 170.58,-96.65 159.99,-96.92 162.47,-103.47"/>
</g>
<!-- x2&#45;&gt;node32 -->
<g id="edge14" class="edge">
<title>x2&#45;&gt;node32</title>
<path fill="none" stroke="black" d="M68.29,-128.76C92.26,-110.61 135.62,-77.78 164.48,-55.93"/>
<polygon fill="black" stroke="black" points="166.7,-58.63 172.56,-49.81 162.48,-53.05 166.7,-58.63"/>
</g>
<!-- .. -->
<g id="node3" class="node">
<title>..</title>
<ellipse fill="none" stroke="black" cx="49.8" cy="-88" rx="27" ry="18"/>
<text text-anchor="middle" x="49.8" y="-84.3" font-family="Times,serif" font-size="14.00">..</text>
</g>
<!-- ..&#45;&gt;node1 -->
<g id="edge3" class="edge">
<title>..&#45;&gt;node1</title>
<path fill="none" stroke="black" d="M68.29,-101.24C92.39,-119.49 136.11,-152.59 164.96,-174.44"/>
<polygon fill="black" stroke="black" points="162.96,-177.31 173.04,-180.55 167.18,-171.73 162.96,-177.31"/>
</g>
<!-- ..&#45;&gt;node2 -->
<g id="edge7" class="edge">
<title>..&#45;&gt;node2</title>
<path fill="none" stroke="black" d="M73.72,-96.68C95.36,-104.87 128.28,-117.33 154.12,-127.11"/>
<polygon fill="black" stroke="black" points="153.05,-130.45 163.64,-130.72 155.52,-123.9 153.05,-130.45"/>
</g>
<!-- ..&#45;&gt;... -->
<g id="edge11" class="edge">
<title>..&#45;&gt;...</title>
<path fill="none" stroke="black" d="M76.96,-88C99.34,-88 131.8,-88 156.77,-88"/>
<polygon fill="black" stroke="black" points="156.96,-91.5 166.96,-88 156.96,-84.5 156.96,-91.5"/>
</g>
<!-- ..&#45;&gt;node32 -->
<g id="edge15" class="edge">
<title>..&#45;&gt;node32</title>
<path fill="none" stroke="black" d="M73.72,-79.32C94.73,-71.37 126.37,-59.39 151.85,-49.74"/>
<polygon fill="black" stroke="black" points="153.16,-52.99 161.28,-46.18 150.69,-46.44 153.16,-52.99"/>
</g>
<!-- x784 -->
<g id="node4" class="node">
<title>x784</title>
<ellipse fill="none" stroke="black" cx="49.8" cy="-34" rx="33.6" ry="18"/>
<text text-anchor="middle" x="49.8" y="-30.3" font-family="Times,serif" font-size="14.00">x784</text>
</g>
<!-- x784&#45;&gt;node1 -->
<g id="edge4" class="edge">
<title>x784&#45;&gt;node1</title>
<path fill="none" stroke="black" d="M65,-50.13C90.18,-78.72 142.78,-138.46 172.26,-171.94"/>
<polygon fill="black" stroke="black" points="169.64,-174.27 178.87,-179.46 174.89,-169.64 169.64,-174.27"/>
</g>
<!-- x784&#45;&gt;node2 -->
<g id="edge8" class="edge">
<title>x784&#45;&gt;node2</title>
<path fill="none" stroke="black" d="M70.03,-48.57C94.43,-67.04 136.7,-99.04 164.87,-120.37"/>
<polygon fill="black" stroke="black" points="163.04,-123.38 173.13,-126.62 167.27,-117.79 163.04,-123.38"/>
</g>
<!-- x784&#45;&gt;... -->
<g id="edge12" class="edge">
<title>x784&#45;&gt;...</title>
<path fill="none" stroke="black" d="M77.96,-44.28C101.65,-53.25 136.06,-66.28 161.16,-75.78"/>
<polygon fill="black" stroke="black" points="160.02,-79.09 170.61,-79.36 162.5,-72.54 160.02,-79.09"/>
</g>
<!-- x784&#45;&gt;node32 -->
<g id="edge16" class="edge">
<title>x784&#45;&gt;node32</title>
<path fill="none" stroke="black" d="M83.88,-34C100.34,-34 120.65,-34 139.3,-34"/>
<polygon fill="black" stroke="black" points="139.45,-37.5 149.45,-34 139.45,-30.5 139.45,-37.5"/>
</g>
<!-- yhat -->
<g id="node9" class="node">
<title>yhat</title>
<ellipse fill="none" stroke="black" cx="379.48" cy="-115" rx="31.4" ry="18"/>
<text text-anchor="middle" x="379.48" y="-111.3" font-family="Times,serif" font-size="14.00">yhat</text>
</g>
<!-- node1&#45;&gt;yhat -->
<g id="edge17" class="edge">
<title>node1&#45;&gt;yhat</title>
<path fill="none" stroke="black" d="M223.24,-183.7C255.88,-169.26 309.97,-145.32 344.92,-129.85"/>
<polygon fill="black" stroke="black" points="346.5,-132.98 354.23,-125.73 343.67,-126.58 346.5,-132.98"/>
</g>
<!-- node2&#45;&gt;yhat -->
<g id="edge18" class="edge">
<title>node2&#45;&gt;yhat</title>
<path fill="none" stroke="black" d="M232.04,-136.6C262.97,-132.04 307.19,-125.52 338.93,-120.83"/>
<polygon fill="black" stroke="black" points="339.8,-124.24 349.18,-119.32 338.77,-117.32 339.8,-124.24"/>
</g>
<!-- ...&#45;&gt;yhat -->
<g id="edge19" class="edge">
<title>...&#45;&gt;yhat</title>
<path fill="none" stroke="black" d="M220.89,-91.75C251.47,-96.26 303.11,-103.88 338.91,-109.16"/>
<polygon fill="black" stroke="black" points="338.61,-112.66 349.01,-110.65 339.63,-105.73 338.61,-112.66"/>
</g>
<!-- node32&#45;&gt;yhat -->
<g id="edge20" class="edge">
<title>node32&#45;&gt;yhat</title>
<path fill="none" stroke="black" d="M225.26,-47.19C257.99,-61.68 310.43,-84.89 344.67,-100.04"/>
<polygon fill="black" stroke="black" points="343.68,-103.43 354.24,-104.27 346.51,-97.02 343.68,-103.43"/>
</g>
</g>
</svg>
