<?xml version="1.0" encoding="UTF-8" standalone="no"?>
<!DOCTYPE svg PUBLIC "-//W3C//DTD SVG 1.1//EN"
 "http://www.w3.org/Graphics/SVG/1.1/DTD/svg11.dtd">
<!-- Generated by graphviz version 2.50.0 (0)
 -->
<!-- Title: G Pages: 1 -->
<svg width="460pt" height="44pt"
 viewBox="0.00 0.00 459.78 44.00" xmlns="http://www.w3.org/2000/svg" xmlns:xlink="http://www.w3.org/1999/xlink">
<g id="graph0" class="graph" transform="scale(1 1) rotate(0) translate(4 40)">
<title>G</title>
<polygon fill="white" stroke="transparent" points="-4,4 -4,-40 455.78,-40 455.78,4 -4,4"/>
<!-- x -->
<g id="node1" class="node">
<title>x</title>
<ellipse fill="none" stroke="black" cx="27" cy="-18" rx="27" ry="18"/>
<text text-anchor="middle" x="27" y="-14.3" font-family="Times,serif" font-size="14.00">x</text>
</g>
<!-- x*ŵ₁, &#160;&#160;&#160;bias=True -->
<g id="node2" class="node">
<title>x*ŵ₁, &#160;&#160;&#160;bias=True</title>
<ellipse fill="none" stroke="black" cx="209.89" cy="-18" rx="94.78" ry="18"/>
<text text-anchor="middle" x="209.89" y="-14.3" font-family="Times,serif" font-size="14.00">x*ŵ₁, &#160;&#160;&#160;bias=True</text>
</g>
<!-- x&#45;&gt;x*ŵ₁, &#160;&#160;&#160;bias=True -->
<g id="edge1" class="edge">
<title>x&#45;&gt;x*ŵ₁, &#160;&#160;&#160;bias=True</title>
<path fill="none" stroke="black" d="M54.3,-18C68.09,-18 85.98,-18 104.67,-18"/>
<polygon fill="black" stroke="black" points="104.8,-21.5 114.8,-18 104.8,-14.5 104.8,-21.5"/>
<text text-anchor="middle" x="84.5" y="-21.8" font-family="Times,serif" font-size="14.00">*ŵ₁</text>
</g>
<!-- ŷ -->
<g id="node3" class="node">
<title>ŷ</title>
<ellipse fill="none" stroke="black" cx="424.78" cy="-18" rx="27" ry="18"/>
<text text-anchor="middle" x="424.78" y="-14.3" font-family="Times,serif" font-size="14.00">ŷ</text>
</g>
<!-- x*ŵ₁, &#160;&#160;&#160;bias=True&#45;&gt;ŷ -->
<g id="edge2" class="edge">
<title>x*ŵ₁, &#160;&#160;&#160;bias=True&#45;&gt;ŷ</title>
<path fill="none" stroke="black" d="M304.89,-18C334.12,-18 364.62,-18 387.41,-18"/>
<polygon fill="black" stroke="black" points="387.63,-21.5 397.63,-18 387.63,-14.5 387.63,-21.5"/>
<text text-anchor="middle" x="351.28" y="-21.8" font-family="Times,serif" font-size="14.00">sigmoid</text>
</g>
</g>
</svg>
