<?xml version="1.0" encoding="UTF-8" standalone="no"?>
<!DOCTYPE svg PUBLIC "-//W3C//DTD SVG 1.1//EN"
 "http://www.w3.org/Graphics/SVG/1.1/DTD/svg11.dtd">
<!-- Generated by graphviz version 2.50.0 (0)
 -->
<!-- Title: G Pages: 1 -->
<svg width="300pt" height="44pt"
 viewBox="0.00 0.00 300.00 44.00" xmlns="http://www.w3.org/2000/svg" xmlns:xlink="http://www.w3.org/1999/xlink">
<g id="graph0" class="graph" transform="scale(1 1) rotate(0) translate(4 40)">
<title>G</title>
<polygon fill="white" stroke="transparent" points="-4,4 -4,-40 296,-40 296,4 -4,4"/>
<!-- x -->
<g id="node1" class="node">
<title>x</title>
<ellipse fill="none" stroke="black" cx="27" cy="-18" rx="27" ry="18"/>
<text text-anchor="middle" x="27" y="-14.3" font-family="Times,serif" font-size="14.00">x</text>
</g>
<!-- u -->
<g id="node2" class="node">
<title>u</title>
<ellipse fill="none" stroke="black" cx="118" cy="-18" rx="27" ry="18"/>
<text text-anchor="middle" x="118" y="-14.3" font-family="Times,serif" font-size="14.00">u</text>
</g>
<!-- x&#45;&gt;u -->
<g id="edge1" class="edge">
<title>x&#45;&gt;u</title>
<path fill="none" stroke="black" d="M54.22,-18C62.55,-18 71.91,-18 80.82,-18"/>
<polygon fill="black" stroke="black" points="80.97,-21.5 90.97,-18 80.97,-14.5 80.97,-21.5"/>
</g>
<!-- y -->
<g id="node3" class="node">
<title>y</title>
<ellipse fill="none" stroke="black" cx="265" cy="-18" rx="27" ry="18"/>
<text text-anchor="middle" x="265" y="-14.3" font-family="Times,serif" font-size="14.00">y</text>
</g>
<!-- u&#45;&gt;y -->
<g id="edge2" class="edge">
<title>u&#45;&gt;y</title>
<path fill="none" stroke="black" d="M145.26,-18C168.36,-18 202.2,-18 227.85,-18"/>
<polygon fill="black" stroke="black" points="227.94,-21.5 237.94,-18 227.94,-14.5 227.94,-21.5"/>
<text text-anchor="middle" x="191.5" y="-21.8" font-family="Times,serif" font-size="14.00">sigmoid</text>
</g>
</g>
</svg>
