<?xml version="1.0" encoding="UTF-8" standalone="no"?>
<!DOCTYPE svg PUBLIC "-//W3C//DTD SVG 1.1//EN"
 "http://www.w3.org/Graphics/SVG/1.1/DTD/svg11.dtd">
<!-- Generated by graphviz version 2.50.0 (0)
 -->
<!-- Title: G Pages: 1 -->
<svg width="443pt" height="44pt"
 viewBox="0.00 0.00 443.38 44.00" xmlns="http://www.w3.org/2000/svg" xmlns:xlink="http://www.w3.org/1999/xlink">
<g id="graph0" class="graph" transform="scale(1 1) rotate(0) translate(4 40)">
<title>G</title>
<polygon fill="white" stroke="transparent" points="-4,4 -4,-40 439.38,-40 439.38,4 -4,4"/>
<!-- x -->
<g id="node1" class="node">
<title>x</title>
<ellipse fill="none" stroke="black" cx="27" cy="-18" rx="27" ry="18"/>
<text text-anchor="middle" x="27" y="-14.3" font-family="Times,serif" font-size="14.00">x</text>
</g>
<!-- x*ŵ, &#160;&#160;&#160;bias=True -->
<g id="node2" class="node">
<title>x*ŵ, &#160;&#160;&#160;bias=True</title>
<ellipse fill="none" stroke="black" cx="198.69" cy="-18" rx="89.88" ry="18"/>
<text text-anchor="middle" x="198.69" y="-14.3" font-family="Times,serif" font-size="14.00">x*ŵ, &#160;&#160;&#160;bias=True</text>
</g>
<!-- x&#45;&gt;x*ŵ, &#160;&#160;&#160;bias=True -->
<g id="edge1" class="edge">
<title>x&#45;&gt;x*ŵ, &#160;&#160;&#160;bias=True</title>
<path fill="none" stroke="black" d="M54.14,-18C66.54,-18 82.21,-18 98.62,-18"/>
<polygon fill="black" stroke="black" points="98.9,-21.5 108.9,-18 98.9,-14.5 98.9,-21.5"/>
<text text-anchor="middle" x="81.5" y="-21.8" font-family="Times,serif" font-size="14.00">*ŵ</text>
</g>
<!-- ŷ -->
<g id="node3" class="node">
<title>ŷ</title>
<ellipse fill="none" stroke="black" cx="408.38" cy="-18" rx="27" ry="18"/>
<text text-anchor="middle" x="408.38" y="-14.3" font-family="Times,serif" font-size="14.00">ŷ</text>
</g>
<!-- x*ŵ, &#160;&#160;&#160;bias=True&#45;&gt;ŷ -->
<g id="edge2" class="edge">
<title>x*ŵ, &#160;&#160;&#160;bias=True&#45;&gt;ŷ</title>
<path fill="none" stroke="black" d="M288.68,-18C317.57,-18 348.03,-18 370.86,-18"/>
<polygon fill="black" stroke="black" points="371.1,-21.5 381.1,-18 371.1,-14.5 371.1,-21.5"/>
<text text-anchor="middle" x="334.88" y="-21.8" font-family="Times,serif" font-size="14.00">sigmoid</text>
</g>
</g>
</svg>
