<?xml version="1.0" encoding="UTF-8" standalone="no"?>
<!DOCTYPE svg PUBLIC "-//W3C//DTD SVG 1.1//EN"
 "http://www.w3.org/Graphics/SVG/1.1/DTD/svg11.dtd">
<!-- Generated by graphviz version 2.50.0 (0)
 -->
<!-- Title: G Pages: 1 -->
<svg width="644pt" height="153pt"
 viewBox="0.00 0.00 643.58 153.00" xmlns="http://www.w3.org/2000/svg" xmlns:xlink="http://www.w3.org/1999/xlink">
<g id="graph0" class="graph" transform="scale(1 1) rotate(0) translate(4 149)">
<title>G</title>
<polygon fill="white" stroke="transparent" points="-4,4 -4,-149 639.58,-149 639.58,4 -4,4"/>
<g id="clust1" class="cluster">
<title>cluster_1</title>
<polygon fill="lightgrey" stroke="lightgrey" points="8,-20 8,-95 79,-95 79,-20 8,-20"/>
<text text-anchor="middle" x="43.5" y="-79.8" font-family="Times,serif" font-size="14.00">Layer 0</text>
</g>
<g id="clust2" class="cluster">
<title>cluster_2</title>
<polygon fill="lightgrey" stroke="lightgrey" points="100,-8 100,-137 343.49,-137 343.49,-8 100,-8"/>
<text text-anchor="middle" x="221.74" y="-121.8" font-family="Times,serif" font-size="14.00">Layer 1</text>
</g>
<g id="clust3" class="cluster">
<title>cluster_3</title>
<polygon fill="lightgrey" stroke="lightgrey" points="364.49,-20 364.49,-95 627.58,-95 627.58,-20 364.49,-20"/>
<text text-anchor="middle" x="496.03" y="-79.8" font-family="Times,serif" font-size="14.00">Layer 2</text>
</g>
<!-- X -->
<g id="node1" class="node">
<title>X</title>
<ellipse fill="none" stroke="black" cx="43" cy="-46" rx="27" ry="18"/>
<text text-anchor="middle" x="43" y="-42.3" font-family="Times,serif" font-size="14.00">X</text>
</g>
<!-- u1[:,0] -->
<g id="node2" class="node">
<title>u1[:,0]</title>
<ellipse fill="none" stroke="black" cx="148.95" cy="-88" rx="40.89" ry="18"/>
<text text-anchor="middle" x="148.95" y="-84.3" font-family="Times,serif" font-size="14.00">u1[:,0]</text>
</g>
<!-- X&#45;&gt;u1[:,0] -->
<g id="edge1" class="edge">
<title>X&#45;&gt;u1[:,0]</title>
<path fill="none" stroke="black" d="M66.55,-55.11C78.88,-60.09 94.49,-66.4 108.74,-72.16"/>
<polygon fill="black" stroke="black" points="107.74,-75.53 118.33,-76.03 110.37,-69.04 107.74,-75.53"/>
</g>
<!-- u1[:,1] -->
<g id="node3" class="node">
<title>u1[:,1]</title>
<ellipse fill="none" stroke="black" cx="148.95" cy="-34" rx="40.89" ry="18"/>
<text text-anchor="middle" x="148.95" y="-30.3" font-family="Times,serif" font-size="14.00">u1[:,1]</text>
</g>
<!-- X&#45;&gt;u1[:,1] -->
<g id="edge2" class="edge">
<title>X&#45;&gt;u1[:,1]</title>
<path fill="none" stroke="black" d="M69.69,-43.03C78.62,-42 88.95,-40.81 99.12,-39.64"/>
<polygon fill="black" stroke="black" points="99.65,-43.1 109.18,-38.48 98.85,-36.15 99.65,-43.1"/>
</g>
<!-- v1[:,0] -->
<g id="node4" class="node">
<title>v1[:,0]</title>
<ellipse fill="none" stroke="black" cx="295.19" cy="-88" rx="40.09" ry="18"/>
<text text-anchor="middle" x="295.19" y="-84.3" font-family="Times,serif" font-size="14.00">v1[:,0]</text>
</g>
<!-- u1[:,0]&#45;&gt;v1[:,0] -->
<g id="edge3" class="edge">
<title>u1[:,0]&#45;&gt;v1[:,0]</title>
<path fill="none" stroke="black" d="M190.13,-88C206.99,-88 226.77,-88 244.54,-88"/>
<polygon fill="black" stroke="black" points="244.72,-91.5 254.72,-88 244.72,-84.5 244.72,-91.5"/>
<text text-anchor="middle" x="222.39" y="-91.8" font-family="Times,serif" font-size="14.00">relu</text>
</g>
<!-- v1[:,1] -->
<g id="node5" class="node">
<title>v1[:,1]</title>
<ellipse fill="none" stroke="black" cx="295.19" cy="-34" rx="40.09" ry="18"/>
<text text-anchor="middle" x="295.19" y="-30.3" font-family="Times,serif" font-size="14.00">v1[:,1]</text>
</g>
<!-- u1[:,1]&#45;&gt;v1[:,1] -->
<g id="edge4" class="edge">
<title>u1[:,1]&#45;&gt;v1[:,1]</title>
<path fill="none" stroke="black" d="M190.13,-34C206.99,-34 226.77,-34 244.54,-34"/>
<polygon fill="black" stroke="black" points="244.72,-37.5 254.72,-34 244.72,-30.5 244.72,-37.5"/>
<text text-anchor="middle" x="222.39" y="-37.8" font-family="Times,serif" font-size="14.00">relu</text>
</g>
<!-- u2 -->
<g id="node6" class="node">
<title>u2</title>
<ellipse fill="none" stroke="black" cx="399.49" cy="-46" rx="27" ry="18"/>
<text text-anchor="middle" x="399.49" y="-42.3" font-family="Times,serif" font-size="14.00">u2</text>
</g>
<!-- v1[:,0]&#45;&gt;u2 -->
<g id="edge5" class="edge">
<title>v1[:,0]&#45;&gt;u2</title>
<path fill="none" stroke="black" d="M325.5,-75.96C338.3,-70.71 353.34,-64.53 366.43,-59.16"/>
<polygon fill="black" stroke="black" points="368.08,-62.27 376,-55.23 365.42,-55.79 368.08,-62.27"/>
</g>
<!-- v1[:,1]&#45;&gt;u2 -->
<g id="edge6" class="edge">
<title>v1[:,1]&#45;&gt;u2</title>
<path fill="none" stroke="black" d="M334.28,-38.47C343.61,-39.56 353.56,-40.73 362.77,-41.81"/>
<polygon fill="black" stroke="black" points="362.44,-45.3 372.78,-42.98 363.26,-38.34 362.44,-45.3"/>
</g>
<!-- v2=yhat -->
<g id="node7" class="node">
<title>v2=yhat</title>
<ellipse fill="none" stroke="black" cx="569.53" cy="-46" rx="50.09" ry="18"/>
<text text-anchor="middle" x="569.53" y="-42.3" font-family="Times,serif" font-size="14.00">v2=yhat</text>
</g>
<!-- u2&#45;&gt;v2=yhat -->
<g id="edge7" class="edge">
<title>u2&#45;&gt;v2=yhat</title>
<path fill="none" stroke="black" d="M426.74,-46C448.78,-46 481.08,-46 509.29,-46"/>
<polygon fill="black" stroke="black" points="509.47,-49.5 519.47,-46 509.47,-42.5 509.47,-49.5"/>
<text text-anchor="middle" x="472.99" y="-49.8" font-family="Times,serif" font-size="14.00">sigmoid</text>
</g>
</g>
</svg>
