<?xml version="1.0" encoding="UTF-8" standalone="no"?>
<!DOCTYPE svg PUBLIC "-//W3C//DTD SVG 1.1//EN"
 "http://www.w3.org/Graphics/SVG/1.1/DTD/svg11.dtd">
<!-- Generated by graphviz version 2.50.0 (0)
 -->
<!-- Title: G Pages: 1 -->
<svg width="518pt" height="98pt"
 viewBox="0.00 0.00 518.38 98.00" xmlns="http://www.w3.org/2000/svg" xmlns:xlink="http://www.w3.org/1999/xlink">
<g id="graph0" class="graph" transform="scale(1 1) rotate(0) translate(4 94)">
<title>G</title>
<polygon fill="white" stroke="transparent" points="-4,4 -4,-94 514.38,-94 514.38,4 -4,4"/>
<!-- 1 -->
<g id="node1" class="node">
<title>1</title>
<ellipse fill="none" stroke="black" cx="27" cy="-72" rx="27" ry="18"/>
<text text-anchor="middle" x="27" y="-68.3" font-family="Times,serif" font-size="14.00">1</text>
</g>
<!-- ŵ₀ + x*ŵ₁, &#160;&#160;&#160;bias=False -->
<g id="node2" class="node">
<title>ŵ₀ + x*ŵ₁, &#160;&#160;&#160;bias=False</title>
<ellipse fill="none" stroke="black" cx="241.19" cy="-45" rx="122.38" ry="18"/>
<text text-anchor="middle" x="241.19" y="-41.3" font-family="Times,serif" font-size="14.00">ŵ₀ + x*ŵ₁, &#160;&#160;&#160;bias=False</text>
</g>
<!-- 1&#45;&gt;ŵ₀ + x*ŵ₁, &#160;&#160;&#160;bias=False -->
<g id="edge1" class="edge">
<title>1&#45;&gt;ŵ₀ + x*ŵ₁, &#160;&#160;&#160;bias=False</title>
<path fill="none" stroke="black" d="M53.59,-68.74C74.88,-66.03 106.65,-61.99 137.97,-58.01"/>
<polygon fill="black" stroke="black" points="138.63,-61.45 148.11,-56.72 137.75,-54.51 138.63,-61.45"/>
<text text-anchor="middle" x="86.5" y="-69.8" font-family="Times,serif" font-size="14.00">* ŵ₀</text>
</g>
<!-- ŷ -->
<g id="node4" class="node">
<title>ŷ</title>
<ellipse fill="none" stroke="black" cx="483.38" cy="-45" rx="27" ry="18"/>
<text text-anchor="middle" x="483.38" y="-41.3" font-family="Times,serif" font-size="14.00">ŷ</text>
</g>
<!-- ŵ₀ + x*ŵ₁, &#160;&#160;&#160;bias=False&#45;&gt;ŷ -->
<g id="edge3" class="edge">
<title>ŵ₀ + x*ŵ₁, &#160;&#160;&#160;bias=False&#45;&gt;ŷ</title>
<path fill="none" stroke="black" d="M363.69,-45C393.69,-45 423.57,-45 445.85,-45"/>
<polygon fill="black" stroke="black" points="446.14,-48.5 456.14,-45 446.14,-41.5 446.14,-48.5"/>
<text text-anchor="middle" x="409.88" y="-48.8" font-family="Times,serif" font-size="14.00">sigmoid</text>
</g>
<!-- x -->
<g id="node3" class="node">
<title>x</title>
<ellipse fill="none" stroke="black" cx="27" cy="-18" rx="27" ry="18"/>
<text text-anchor="middle" x="27" y="-14.3" font-family="Times,serif" font-size="14.00">x</text>
</g>
<!-- x&#45;&gt;ŵ₀ + x*ŵ₁, &#160;&#160;&#160;bias=False -->
<g id="edge2" class="edge">
<title>x&#45;&gt;ŵ₀ + x*ŵ₁, &#160;&#160;&#160;bias=False</title>
<path fill="none" stroke="black" d="M53.59,-21.26C74.88,-23.97 106.65,-28.01 137.97,-31.99"/>
<polygon fill="black" stroke="black" points="137.75,-35.49 148.11,-33.28 138.63,-28.55 137.75,-35.49"/>
<text text-anchor="middle" x="86.5" y="-29.8" font-family="Times,serif" font-size="14.00">* ŵ₁</text>
</g>
</g>
</svg>
