<?xml version="1.0" encoding="UTF-8" standalone="no"?>
<!DOCTYPE svg PUBLIC "-//W3C//DTD SVG 1.1//EN"
 "http://www.w3.org/Graphics/SVG/1.1/DTD/svg11.dtd">
<!-- Generated by graphviz version 2.50.0 (0)
 -->
<!-- Title: G Pages: 1 -->
<svg width="362pt" height="153pt"
 viewBox="0.00 0.00 361.89 153.00" xmlns="http://www.w3.org/2000/svg" xmlns:xlink="http://www.w3.org/1999/xlink">
<g id="graph0" class="graph" transform="scale(1 1) rotate(0) translate(4 149)">
<title>G</title>
<polygon fill="white" stroke="transparent" points="-4,4 -4,-149 357.89,-149 357.89,4 -4,4"/>
<g id="clust1" class="cluster">
<title>cluster_1</title>
<polygon fill="lightgrey" stroke="lightgrey" points="8,-35 8,-110 79,-110 79,-35 8,-35"/>
<text text-anchor="middle" x="43.5" y="-94.8" font-family="Times,serif" font-size="14.00">Layer 0</text>
</g>
<g id="clust2" class="cluster">
<title>cluster_2</title>
<polygon fill="lightgrey" stroke="lightgrey" points="99,-8 99,-137 202.99,-137 202.99,-8 99,-8"/>
<text text-anchor="middle" x="151" y="-121.8" font-family="Times,serif" font-size="14.00">Layer 1:relu</text>
</g>
<g id="clust3" class="cluster">
<title>cluster_3</title>
<polygon fill="lightgrey" stroke="lightgrey" points="222.99,-35 222.99,-110 353.89,-110 353.89,-35 222.99,-35"/>
<text text-anchor="middle" x="288.44" y="-94.8" font-family="Times,serif" font-size="14.00">Layer 2:sigmoid</text>
</g>
<!-- X -->
<g id="node1" class="node">
<title>X</title>
<ellipse fill="none" stroke="black" cx="43" cy="-61" rx="27" ry="18"/>
<text text-anchor="middle" x="43" y="-57.3" font-family="Times,serif" font-size="14.00">X</text>
</g>
<!-- node1 -->
<g id="node2" class="node">
<title>node1</title>
<ellipse fill="none" stroke="black" cx="151" cy="-88" rx="38.99" ry="18"/>
<text text-anchor="middle" x="151" y="-84.3" font-family="Times,serif" font-size="14.00">node1</text>
</g>
<!-- X&#45;&gt;node1 -->
<g id="edge1" class="edge">
<title>X&#45;&gt;node1</title>
<path fill="none" stroke="black" d="M68.58,-67.26C79.89,-70.14 93.65,-73.65 106.61,-76.95"/>
<polygon fill="black" stroke="black" points="105.76,-80.34 116.31,-79.42 107.49,-73.56 105.76,-80.34"/>
</g>
<!-- node2 -->
<g id="node3" class="node">
<title>node2</title>
<ellipse fill="none" stroke="black" cx="151" cy="-34" rx="38.99" ry="18"/>
<text text-anchor="middle" x="151" y="-30.3" font-family="Times,serif" font-size="14.00">node2</text>
</g>
<!-- X&#45;&gt;node2 -->
<g id="edge2" class="edge">
<title>X&#45;&gt;node2</title>
<path fill="none" stroke="black" d="M68.58,-54.74C79.89,-51.86 93.65,-48.35 106.61,-45.05"/>
<polygon fill="black" stroke="black" points="107.49,-48.44 116.31,-42.58 105.76,-41.66 107.49,-48.44"/>
</g>
<!-- yhat  -->
<g id="node4" class="node">
<title>yhat </title>
<ellipse fill="none" stroke="black" cx="288.44" cy="-61" rx="34.39" ry="18"/>
<text text-anchor="middle" x="288.44" y="-57.3" font-family="Times,serif" font-size="14.00">yhat </text>
</g>
<!-- node1&#45;&gt;yhat  -->
<g id="edge3" class="edge">
<title>node1&#45;&gt;yhat </title>
<path fill="none" stroke="black" d="M187.23,-80.98C205.3,-77.37 227.42,-72.97 246.27,-69.21"/>
<polygon fill="black" stroke="black" points="246.96,-72.64 256.08,-67.25 245.59,-65.77 246.96,-72.64"/>
</g>
<!-- node2&#45;&gt;yhat  -->
<g id="edge4" class="edge">
<title>node2&#45;&gt;yhat </title>
<path fill="none" stroke="black" d="M187.23,-41.02C205.3,-44.63 227.42,-49.03 246.27,-52.79"/>
<polygon fill="black" stroke="black" points="245.59,-56.23 256.08,-54.75 246.96,-49.36 245.59,-56.23"/>
</g>
</g>
</svg>
