<?xml version="1.0" encoding="UTF-8" standalone="no"?>
<!DOCTYPE svg PUBLIC "-//W3C//DTD SVG 1.1//EN"
 "http://www.w3.org/Graphics/SVG/1.1/DTD/svg11.dtd">
<!-- Generated by graphviz version 2.50.0 (0)
 -->
<!-- Title: G Pages: 1 -->
<svg width="650pt" height="98pt"
 viewBox="0.00 0.00 649.58 98.00" xmlns="http://www.w3.org/2000/svg" xmlns:xlink="http://www.w3.org/1999/xlink">
<g id="graph0" class="graph" transform="scale(1 1) rotate(0) translate(4 94)">
<title>G</title>
<polygon fill="white" stroke="transparent" points="-4,4 -4,-94 645.58,-94 645.58,4 -4,4"/>
<!-- x -->
<g id="node1" class="node">
<title>x</title>
<ellipse fill="none" stroke="black" cx="27" cy="-45" rx="27" ry="18"/>
<text text-anchor="middle" x="27" y="-41.3" font-family="Times,serif" font-size="14.00">x</text>
</g>
<!-- u1[:,0] -->
<g id="node2" class="node">
<title>u1[:,0]</title>
<ellipse fill="none" stroke="black" cx="161.95" cy="-72" rx="40.89" ry="18"/>
<text text-anchor="middle" x="161.95" y="-68.3" font-family="Times,serif" font-size="14.00">u1[:,0]</text>
</g>
<!-- x&#45;&gt;u1[:,0] -->
<g id="edge1" class="edge">
<title>x&#45;&gt;u1[:,0]</title>
<path fill="none" stroke="black" d="M53.01,-50.08C70.33,-53.6 93.91,-58.39 114.61,-62.59"/>
<polygon fill="black" stroke="black" points="114.01,-66.04 124.5,-64.6 115.4,-59.18 114.01,-66.04"/>
<text text-anchor="middle" x="87.5" y="-63.8" font-family="Times,serif" font-size="14.00">*(&#45;1)</text>
</g>
<!-- u1[:,1] -->
<g id="node3" class="node">
<title>u1[:,1]</title>
<ellipse fill="none" stroke="black" cx="161.95" cy="-18" rx="40.89" ry="18"/>
<text text-anchor="middle" x="161.95" y="-14.3" font-family="Times,serif" font-size="14.00">u1[:,1]</text>
</g>
<!-- x&#45;&gt;u1[:,1] -->
<g id="edge2" class="edge">
<title>x&#45;&gt;u1[:,1]</title>
<path fill="none" stroke="black" d="M52.63,-39.24C58.94,-37.81 65.71,-36.31 72,-35 85.49,-32.18 100.17,-29.3 113.64,-26.73"/>
<polygon fill="black" stroke="black" points="114.5,-30.13 123.67,-24.83 113.19,-23.25 114.5,-30.13"/>
<text text-anchor="middle" x="87.5" y="-38.8" font-family="Times,serif" font-size="14.00">*1</text>
</g>
<!-- v1[:,0] -->
<g id="node4" class="node">
<title>v1[:,0]</title>
<ellipse fill="none" stroke="black" cx="308.19" cy="-72" rx="40.09" ry="18"/>
<text text-anchor="middle" x="308.19" y="-68.3" font-family="Times,serif" font-size="14.00">v1[:,0]</text>
</g>
<!-- u1[:,0]&#45;&gt;v1[:,0] -->
<g id="edge3" class="edge">
<title>u1[:,0]&#45;&gt;v1[:,0]</title>
<path fill="none" stroke="black" d="M203.13,-72C219.99,-72 239.77,-72 257.54,-72"/>
<polygon fill="black" stroke="black" points="257.72,-75.5 267.72,-72 257.72,-68.5 257.72,-75.5"/>
<text text-anchor="middle" x="235.39" y="-75.8" font-family="Times,serif" font-size="14.00">relu</text>
</g>
<!-- v1[:,1] -->
<g id="node5" class="node">
<title>v1[:,1]</title>
<ellipse fill="none" stroke="black" cx="308.19" cy="-18" rx="40.09" ry="18"/>
<text text-anchor="middle" x="308.19" y="-14.3" font-family="Times,serif" font-size="14.00">v1[:,1]</text>
</g>
<!-- u1[:,1]&#45;&gt;v1[:,1] -->
<g id="edge4" class="edge">
<title>u1[:,1]&#45;&gt;v1[:,1]</title>
<path fill="none" stroke="black" d="M203.13,-18C219.99,-18 239.77,-18 257.54,-18"/>
<polygon fill="black" stroke="black" points="257.72,-21.5 267.72,-18 257.72,-14.5 257.72,-21.5"/>
<text text-anchor="middle" x="235.39" y="-21.8" font-family="Times,serif" font-size="14.00">relu</text>
</g>
<!-- u2 -->
<g id="node6" class="node">
<title>u2</title>
<ellipse fill="none" stroke="black" cx="456.49" cy="-45" rx="27" ry="18"/>
<text text-anchor="middle" x="456.49" y="-41.3" font-family="Times,serif" font-size="14.00">u2</text>
</g>
<!-- v1[:,0]&#45;&gt;u2 -->
<g id="edge5" class="edge">
<title>v1[:,0]&#45;&gt;u2</title>
<path fill="none" stroke="black" d="M345.73,-65.26C368.48,-61.06 397.6,-55.68 420.13,-51.53"/>
<polygon fill="black" stroke="black" points="420.77,-54.97 429.96,-49.71 419.5,-48.08 420.77,-54.97"/>
<text text-anchor="middle" x="388.99" y="-63.8" font-family="Times,serif" font-size="14.00">*(&#45;9.0)</text>
</g>
<!-- v1[:,1]&#45;&gt;u2 -->
<g id="edge6" class="edge">
<title>v1[:,1]&#45;&gt;u2</title>
<path fill="none" stroke="black" d="M347.23,-23.12C366.55,-25.93 390.34,-29.71 411.49,-34 414.55,-34.62 417.72,-35.31 420.9,-36.04"/>
<polygon fill="black" stroke="black" points="420.37,-39.51 430.91,-38.44 422,-32.71 420.37,-39.51"/>
<text text-anchor="middle" x="388.99" y="-37.8" font-family="Times,serif" font-size="14.00">*(&#45;4.5)</text>
</g>
<!-- v2=yhat -->
<g id="node7" class="node">
<title>v2=yhat</title>
<ellipse fill="none" stroke="black" cx="591.53" cy="-45" rx="50.09" ry="18"/>
<text text-anchor="middle" x="591.53" y="-41.3" font-family="Times,serif" font-size="14.00">v2=yhat</text>
</g>
<!-- u2&#45;&gt;v2=yhat -->
<g id="edge7" class="edge">
<title>u2&#45;&gt;v2=yhat</title>
<path fill="none" stroke="black" d="M483.77,-45C497.38,-45 514.59,-45 531.19,-45"/>
<polygon fill="black" stroke="black" points="531.41,-48.5 541.41,-45 531.41,-41.5 531.41,-48.5"/>
<text text-anchor="middle" x="512.49" y="-48.8" font-family="Times,serif" font-size="14.00">sig</text>
</g>
</g>
</svg>
