<?xml version="1.0" encoding="UTF-8" standalone="no"?>
<!DOCTYPE svg PUBLIC "-//W3C//DTD SVG 1.1//EN"
 "http://www.w3.org/Graphics/SVG/1.1/DTD/svg11.dtd">
<!-- Generated by graphviz version 2.50.0 (20220117.2223)
 -->
<!-- Title: G Pages: 1 -->
<svg width="372pt" height="261pt"
 viewBox="0.00 0.00 371.59 261.00" xmlns="http://www.w3.org/2000/svg" xmlns:xlink="http://www.w3.org/1999/xlink">
<g id="graph0" class="graph" transform="scale(1 1) rotate(0) translate(4 257)">
<title>G</title>
<polygon fill="white" stroke="transparent" points="-4,4 -4,-257 367.59,-257 367.59,4 -4,4"/>
<g id="clust1" class="cluster">
<title>cluster_1</title>
<polygon fill="lightgrey" stroke="lightgrey" points="8,-8 8,-245 92.89,-245 92.89,-8 8,-8"/>
<text text-anchor="middle" x="50.45" y="-229.8" font-family="Times,serif" font-size="14.00">Layer: </text>
</g>
<g id="clust2" class="cluster">
<title>cluster_2</title>
<polygon fill="lightgrey" stroke="lightgrey" points="112.89,-8 112.89,-245 218.59,-245 218.59,-8 112.89,-8"/>
<text text-anchor="middle" x="165.74" y="-229.8" font-family="Times,serif" font-size="14.00">Layer: ReLU</text>
</g>
<g id="clust3" class="cluster">
<title>cluster_3</title>
<polygon fill="lightgrey" stroke="lightgrey" points="238.59,-62 238.59,-191 363.59,-191 363.59,-62 238.59,-62"/>
<text text-anchor="middle" x="301.09" y="-175.8" font-family="Times,serif" font-size="14.00">Layer: Softmax</text>
</g>
<!-- X1 -->
<g id="node1" class="node">
<title>X1</title>
<ellipse fill="none" stroke="black" cx="50.45" cy="-196" rx="27" ry="18"/>
<text text-anchor="middle" x="50.45" y="-192.3" font-family="Times,serif" font-size="14.00">X1</text>
</g>
<!-- node1 -->
<g id="node5" class="node">
<title>node1</title>
<ellipse fill="none" stroke="black" cx="165.74" cy="-196" rx="38.99" ry="18"/>
<text text-anchor="middle" x="165.74" y="-192.3" font-family="Times,serif" font-size="14.00">node1</text>
</g>
<!-- X1&#45;&gt;node1 -->
<g id="edge1" class="edge">
<title>X1&#45;&gt;node1</title>
<path fill="none" stroke="black" d="M77.72,-196C89.29,-196 103.25,-196 116.57,-196"/>
<polygon fill="black" stroke="black" points="116.58,-199.5 126.58,-196 116.58,-192.5 116.58,-199.5"/>
</g>
<!-- node2 -->
<g id="node6" class="node">
<title>node2</title>
<ellipse fill="none" stroke="black" cx="165.74" cy="-142" rx="38.99" ry="18"/>
<text text-anchor="middle" x="165.74" y="-138.3" font-family="Times,serif" font-size="14.00">node2</text>
</g>
<!-- X1&#45;&gt;node2 -->
<g id="edge5" class="edge">
<title>X1&#45;&gt;node2</title>
<path fill="none" stroke="black" d="M72.76,-185.84C88.48,-178.35 110.24,-167.98 128.65,-159.2"/>
<polygon fill="black" stroke="black" points="130.41,-162.24 137.93,-154.78 127.39,-155.92 130.41,-162.24"/>
</g>
<!-- ... -->
<g id="node7" class="node">
<title>...</title>
<ellipse fill="none" stroke="black" cx="165.74" cy="-88" rx="27" ry="18"/>
<text text-anchor="middle" x="165.74" y="-84.3" font-family="Times,serif" font-size="14.00">...</text>
</g>
<!-- X1&#45;&gt;... -->
<g id="edge9" class="edge">
<title>X1&#45;&gt;...</title>
<path fill="none" stroke="black" d="M66.73,-181.43C86.07,-163 119.56,-131.07 141.93,-109.74"/>
<polygon fill="black" stroke="black" points="144.52,-112.11 149.34,-102.68 139.69,-107.05 144.52,-112.11"/>
</g>
<!-- node32 -->
<g id="node8" class="node">
<title>node32</title>
<ellipse fill="none" stroke="black" cx="165.74" cy="-34" rx="44.69" ry="18"/>
<text text-anchor="middle" x="165.74" y="-30.3" font-family="Times,serif" font-size="14.00">node32</text>
</g>
<!-- X1&#45;&gt;node32 -->
<g id="edge13" class="edge">
<title>X1&#45;&gt;node32</title>
<path fill="none" stroke="black" d="M62.72,-179.87C82.35,-151.81 122.95,-93.76 146.58,-59.97"/>
<polygon fill="black" stroke="black" points="149.62,-61.73 152.48,-51.52 143.89,-57.71 149.62,-61.73"/>
</g>
<!-- X2 -->
<g id="node2" class="node">
<title>X2</title>
<ellipse fill="none" stroke="black" cx="50.45" cy="-142" rx="27" ry="18"/>
<text text-anchor="middle" x="50.45" y="-138.3" font-family="Times,serif" font-size="14.00">X2</text>
</g>
<!-- X2&#45;&gt;node1 -->
<g id="edge2" class="edge">
<title>X2&#45;&gt;node1</title>
<path fill="none" stroke="black" d="M72.76,-152.16C88.48,-159.65 110.24,-170.02 128.65,-178.8"/>
<polygon fill="black" stroke="black" points="127.39,-182.08 137.93,-183.22 130.41,-175.76 127.39,-182.08"/>
</g>
<!-- X2&#45;&gt;node2 -->
<g id="edge6" class="edge">
<title>X2&#45;&gt;node2</title>
<path fill="none" stroke="black" d="M77.72,-142C89.29,-142 103.25,-142 116.57,-142"/>
<polygon fill="black" stroke="black" points="116.58,-145.5 126.58,-142 116.58,-138.5 116.58,-145.5"/>
</g>
<!-- X2&#45;&gt;... -->
<g id="edge10" class="edge">
<title>X2&#45;&gt;...</title>
<path fill="none" stroke="black" d="M72.76,-131.84C90.05,-123.6 114.67,-111.87 134.08,-102.61"/>
<polygon fill="black" stroke="black" points="135.62,-105.76 143.14,-98.3 132.61,-99.44 135.62,-105.76"/>
</g>
<!-- X2&#45;&gt;node32 -->
<g id="edge14" class="edge">
<title>X2&#45;&gt;node32</title>
<path fill="none" stroke="black" d="M66.73,-127.43C85.53,-109.51 117.7,-78.84 140.03,-57.55"/>
<polygon fill="black" stroke="black" points="142.66,-59.88 147.48,-50.45 137.83,-54.82 142.66,-59.88"/>
</g>
<!-- .. -->
<g id="node3" class="node">
<title>..</title>
<ellipse fill="none" stroke="black" cx="50.45" cy="-88" rx="27" ry="18"/>
<text text-anchor="middle" x="50.45" y="-84.3" font-family="Times,serif" font-size="14.00">..</text>
</g>
<!-- ..&#45;&gt;node1 -->
<g id="edge3" class="edge">
<title>..&#45;&gt;node1</title>
<path fill="none" stroke="black" d="M66.73,-102.57C85.64,-120.59 118.07,-151.51 140.42,-172.81"/>
<polygon fill="black" stroke="black" points="138.21,-175.54 147.86,-179.91 143.04,-170.48 138.21,-175.54"/>
</g>
<!-- ..&#45;&gt;node2 -->
<g id="edge7" class="edge">
<title>..&#45;&gt;node2</title>
<path fill="none" stroke="black" d="M72.76,-98.16C88.48,-105.65 110.24,-116.02 128.65,-124.8"/>
<polygon fill="black" stroke="black" points="127.39,-128.08 137.93,-129.22 130.41,-121.76 127.39,-128.08"/>
</g>
<!-- ..&#45;&gt;... -->
<g id="edge11" class="edge">
<title>..&#45;&gt;...</title>
<path fill="none" stroke="black" d="M77.72,-88C92.74,-88 111.79,-88 128.24,-88"/>
<polygon fill="black" stroke="black" points="128.61,-91.5 138.61,-88 128.61,-84.5 128.61,-91.5"/>
</g>
<!-- ..&#45;&gt;node32 -->
<g id="edge15" class="edge">
<title>..&#45;&gt;node32</title>
<path fill="none" stroke="black" d="M72.76,-77.84C88.04,-70.56 109.04,-60.55 127.11,-51.93"/>
<polygon fill="black" stroke="black" points="128.73,-55.04 136.25,-47.58 125.72,-48.72 128.73,-55.04"/>
</g>
<!-- X784 -->
<g id="node4" class="node">
<title>X784</title>
<ellipse fill="none" stroke="black" cx="50.45" cy="-34" rx="34.39" ry="18"/>
<text text-anchor="middle" x="50.45" y="-30.3" font-family="Times,serif" font-size="14.00">X784</text>
</g>
<!-- X784&#45;&gt;node1 -->
<g id="edge4" class="edge">
<title>X784&#45;&gt;node1</title>
<path fill="none" stroke="black" d="M63.36,-51.03C83.28,-79.52 123.47,-136.98 146.82,-170.37"/>
<polygon fill="black" stroke="black" points="144.05,-172.52 152.65,-178.71 149.79,-168.51 144.05,-172.52"/>
</g>
<!-- X784&#45;&gt;node2 -->
<g id="edge8" class="edge">
<title>X784&#45;&gt;node2</title>
<path fill="none" stroke="black" d="M68.16,-49.94C87.21,-68.1 118.52,-97.94 140.31,-118.71"/>
<polygon fill="black" stroke="black" points="137.93,-121.28 147.58,-125.64 142.76,-116.21 137.93,-121.28"/>
</g>
<!-- X784&#45;&gt;... -->
<g id="edge12" class="edge">
<title>X784&#45;&gt;...</title>
<path fill="none" stroke="black" d="M76.59,-45.98C93.42,-54.01 115.69,-64.62 133.64,-73.18"/>
<polygon fill="black" stroke="black" points="132.57,-76.54 143.1,-77.69 135.58,-70.22 132.57,-76.54"/>
</g>
<!-- X784&#45;&gt;node32 -->
<g id="edge16" class="edge">
<title>X784&#45;&gt;node32</title>
<path fill="none" stroke="black" d="M85.13,-34C93.2,-34 102.01,-34 110.73,-34"/>
<polygon fill="black" stroke="black" points="110.89,-37.5 120.89,-34 110.89,-30.5 110.89,-37.5"/>
</g>
<!-- y1 -->
<g id="node9" class="node">
<title>y1</title>
<ellipse fill="none" stroke="black" cx="300.59" cy="-142" rx="27" ry="18"/>
<text text-anchor="middle" x="300.59" y="-138.3" font-family="Times,serif" font-size="14.00">y1</text>
</g>
<!-- node1&#45;&gt;y1 -->
<g id="edge17" class="edge">
<title>node1&#45;&gt;y1</title>
<path fill="none" stroke="black" d="M195.57,-184.28C216.74,-175.67 245.52,-163.98 267.44,-155.07"/>
<polygon fill="black" stroke="black" points="269.03,-158.2 276.98,-151.19 266.39,-151.71 269.03,-158.2"/>
</g>
<!-- y2 -->
<g id="node10" class="node">
<title>y2</title>
<ellipse fill="none" stroke="black" cx="300.59" cy="-88" rx="27" ry="18"/>
<text text-anchor="middle" x="300.59" y="-84.3" font-family="Times,serif" font-size="14.00">y2</text>
</g>
<!-- node1&#45;&gt;y2 -->
<g id="edge21" class="edge">
<title>node1&#45;&gt;y2</title>
<path fill="none" stroke="black" d="M185.77,-180.53C209.21,-161.47 249.07,-129.07 274.85,-108.11"/>
<polygon fill="black" stroke="black" points="277.14,-110.76 282.69,-101.73 272.72,-105.33 277.14,-110.76"/>
</g>
<!-- node2&#45;&gt;y1 -->
<g id="edge18" class="edge">
<title>node2&#45;&gt;y1</title>
<path fill="none" stroke="black" d="M204.81,-142C223.14,-142 245.02,-142 263.13,-142"/>
<polygon fill="black" stroke="black" points="263.31,-145.5 273.31,-142 263.31,-138.5 263.31,-145.5"/>
</g>
<!-- node2&#45;&gt;y2 -->
<g id="edge22" class="edge">
<title>node2&#45;&gt;y2</title>
<path fill="none" stroke="black" d="M195.57,-130.28C216.74,-121.67 245.52,-109.98 267.44,-101.07"/>
<polygon fill="black" stroke="black" points="269.03,-104.2 276.98,-97.19 266.39,-97.71 269.03,-104.2"/>
</g>
<!-- ...&#45;&gt;y1 -->
<g id="edge19" class="edge">
<title>...&#45;&gt;y1</title>
<path fill="none" stroke="black" d="M189.28,-97.16C210.75,-105.89 243.29,-119.12 267.47,-128.95"/>
<polygon fill="black" stroke="black" points="266.36,-132.27 276.94,-132.79 268.99,-125.79 266.36,-132.27"/>
</g>
<!-- ...&#45;&gt;y2 -->
<g id="edge23" class="edge">
<title>...&#45;&gt;y2</title>
<path fill="none" stroke="black" d="M192.99,-88C213.09,-88 241.06,-88 263.31,-88"/>
<polygon fill="black" stroke="black" points="263.39,-91.5 273.39,-88 263.39,-84.5 263.39,-91.5"/>
</g>
<!-- node32&#45;&gt;y1 -->
<g id="edge20" class="edge">
<title>node32&#45;&gt;y1</title>
<path fill="none" stroke="black" d="M186.63,-50.17C210.04,-69.2 248.95,-100.83 274.43,-121.55"/>
<polygon fill="black" stroke="black" points="272.55,-124.53 282.52,-128.13 276.97,-119.1 272.55,-124.53"/>
</g>
<!-- node32&#45;&gt;y2 -->
<g id="edge24" class="edge">
<title>node32&#45;&gt;y2</title>
<path fill="none" stroke="black" d="M197.89,-46.66C218.81,-55.16 246.31,-66.34 267.43,-74.93"/>
<polygon fill="black" stroke="black" points="266.36,-78.27 276.94,-78.79 268.99,-71.79 266.36,-78.27"/>
</g>
</g>
</svg>
